# xmcd CD database file
#
# Track frame offsets:
#	187
#	14015
#	29652
#	42580
#	65590
#	77345
#	92987
#	106160
#	128820
#
# Disc length: 2167 seconds
#
# Revision: 0
# Processed by: cddbd v1.5.1PL0 Copyright (c) Steve Scherf et al.
# Submitted via: CDex 1.51
#
DISCID=76087509
DTITLE=頭脳警察 - 悪たれ小僧
DYEAR=1974
DGENRE=Rock
TTITLE0=戦慄のプレリュード
TTITLE1=夜明けまで離さない
TTITLE2=ひとつぶの種になって
TTITLE3=悪たれ小僧
TTITLE4=真夜中のマリア
TTITLE5=落葉のささやき
TTITLE6=サラブレッド
TTITLE7=スホーイの後に
TTITLE8=あばよ東京
EXTD=YEAR: 1974
EXTT0=
EXTT1=
EXTT2=
EXTT3=
EXTT4=
EXTT5=
EXTT6=
EXTT7=
EXTT8=
PLAYORDER=
